<?xml version="1.0" encoding="utf-8"?>
<!-- Generator: Adobe Illustrator 22.1.0, SVG Export Plug-In . SVG Version: 6.00 Build 0)  -->
<svg version="1.1" id="Слой_1" xmlns="http://www.w3.org/2000/svg" xmlns:xlink="http://www.w3.org/1999/xlink" x="0px" y="0px"
	 viewBox="0 0 512 512" style="enable-background:new 0 0 512 512;" xml:space="preserve">
<style type="text/css">
	.st0{fill:#B88D61;}
</style>
<title>004 - Printer</title>
<desc>Created with Sketch.</desc>
<g id="Page-1">
	<g id="_x30_04---Printer">
		<path id="Shape" class="st0" d="M511.4,201.9c-0.1-0.2-0.1-0.4-0.2-0.6c-0.4-0.8-0.8-1.6-1.5-2.3l-72.6-79.9
			c-9.7-10.7-23.5-16.7-37.9-16.8h-40.9V17.1c0-9.4-7.6-17.1-17.1-17.1H170.7c-9.4,0-17.1,7.6-17.1,17.1v85.3h-40.9
			c-14.4,0-28.2,6.1-37.9,16.8L2.2,199.1c-0.6,0.7-1.1,1.4-1.5,2.3c-0.1,0.2-0.1,0.4-0.2,0.6c-0.3,0.8-0.4,1.6-0.5,2.4
			c0,0.2-0.1,0.3-0.1,0.5v162.1c0,28.3,22.9,51.2,51.2,51.2h59.7l-30.7,41c-3.9,5.2-4.5,12.1-1.6,17.9c2.9,5.8,8.8,9.4,15.3,9.4
			h49.6l-0.7,1.5c-2.4,5.3-2,11.4,1.2,16.3c3.1,4.9,8.5,7.8,14.3,7.8h195.4c5.8,0,11.2-2.9,14.3-7.8c3.1-4.9,3.6-11,1.2-16.3
			l-0.7-1.5h49.6c6.5,0,12.4-3.7,15.3-9.4c2.9-5.8,2.3-12.7-1.6-17.9l-30.7-41h59.7c28.3,0,51.2-22.9,51.2-51.2V204.8
			c0-0.2-0.1-0.3-0.1-0.5C511.9,203.5,511.7,202.7,511.4,201.9z M170.7,17.1h170.7v136.5H170.7V17.1z M87.5,130.6
			c6.5-7.1,15.6-11.2,25.3-11.2h40.9v34.1h-8.5c-4.7,0-8.5,3.8-8.5,8.5c0,4.7,3.8,8.5,8.5,8.5h221.9c4.7,0,8.5-3.8,8.5-8.5
			c0-4.7-3.8-8.5-8.5-8.5h-8.5v-34.1h40.9c9.6,0,18.8,4.1,25.3,11.2l59.7,65.6H27.8L87.5,130.6z M384,395.4l-17.1-22.8v-14.2
			c0-14.1-11.5-25.6-25.6-25.6H170.7c-14.1,0-25.6,11.5-25.6,25.6v14.2L128,395.4v-62.6c0-33,26.8-59.7,59.7-59.7h136.5
			c33,0,59.7,26.8,59.7,59.7V395.4z M349.9,366.9H162.1v-8.5c0-4.7,3.8-8.5,8.5-8.5h170.7c4.7,0,8.5,3.8,8.5,8.5V366.9z
			 M158.3,494.9l34.9-76.8h125.5l34.9,76.8H158.3z M360.8,469.3l-28.7-63.1l-0.1-0.2c-0.4-0.8-0.9-1.6-1.6-2.3
			c-0.2-0.2-0.4-0.3-0.6-0.5c-0.6-0.5-1.2-0.9-1.9-1.2c-0.3-0.1-0.5-0.3-0.8-0.4c-0.9-0.4-2-0.6-3-0.6H187.7c-1,0-2,0.2-3,0.6
			c-0.3,0.1-0.5,0.2-0.8,0.4c-0.7,0.3-1.3,0.8-1.9,1.2c-0.2,0.2-0.4,0.3-0.6,0.5c-0.7,0.7-1.2,1.4-1.6,2.3l-0.1,0.2l-28.7,63.1H93.9
			l64-85.3h196.3l64,85.3H360.8z M494.9,366.9c0,18.9-15.3,34.1-34.1,34.1h-59.7v-68.3c-0.1-42.4-34.4-76.7-76.8-76.8H187.7
			c-42.4,0.1-76.7,34.4-76.8,76.8v68.3H51.2c-18.9,0-34.1-15.3-34.1-34.1V213.3h477.9V366.9z"/>
		<path id="Shape_1_" class="st0" d="M452.3,290.1c14.1,0,25.6-11.5,25.6-25.6c0-14.1-11.5-25.6-25.6-25.6s-25.6,11.5-25.6,25.6
			C426.7,278.7,438.1,290.1,452.3,290.1z M452.3,256c4.7,0,8.5,3.8,8.5,8.5s-3.8,8.5-8.5,8.5s-8.5-3.8-8.5-8.5S447.6,256,452.3,256z
			"/>
		<circle id="Oval" class="st0" cx="452.3" cy="315.7" r="8.5"/>
		<circle id="Oval_1_" class="st0" cx="452.3" cy="341.3" r="8.5"/>
		<circle id="Oval_2_" class="st0" cx="452.3" cy="366.9" r="8.5"/>
		<path id="Shape_2_" class="st0" d="M221.9,452.3h68.3c4.7,0,8.5-3.8,8.5-8.5c0-4.7-3.8-8.5-8.5-8.5h-68.3c-4.7,0-8.5,3.8-8.5,8.5
			C213.3,448.4,217.2,452.3,221.9,452.3z"/>
		<path id="Shape_3_" class="st0" d="M307.2,460.8H204.8c-4.7,0-8.5,3.8-8.5,8.5c0,4.7,3.8,8.5,8.5,8.5h102.4c4.7,0,8.5-3.8,8.5-8.5
			C315.7,464.6,311.9,460.8,307.2,460.8z"/>
		<path id="Shape_4_" class="st0" d="M42.7,256c4.7,0,8.5-3.8,8.5-8.5v-8.5c0-4.7-3.8-8.5-8.5-8.5s-8.5,3.8-8.5,8.5v8.5
			C34.1,252.2,38,256,42.7,256z"/>
		<path id="Shape_5_" class="st0" d="M42.7,341.3c4.7,0,8.5-3.8,8.5-8.5v-51.2c0-4.7-3.8-8.5-8.5-8.5s-8.5,3.8-8.5,8.5v51.2
			C34.1,337.5,38,341.3,42.7,341.3z"/>
	</g>
</g>
</svg>
