<?xml version="1.0"?>
<svg xmlns="http://www.w3.org/2000/svg" xmlns:xlink="http://www.w3.org/1999/xlink" version="1.1" id="Capa_1" x="0px" y="0px" viewBox="0 0 512 512" style="enable-background:new 0 0 512 512;" xml:space="preserve" width="70px" height="70px"><g><g>
	<g>
		<path d="M414.647,305.451c-4.142,0-7.5,3.358-7.5,7.5v8.979c0,4.142,3.358,7.5,7.5,7.5c4.142,0,7.5-3.358,7.5-7.5v-8.979    C422.147,308.809,418.789,305.451,414.647,305.451z" data-original="#000000" class="active-path" data-old_color="#000000" fill="#B88D61"/>
	</g>
</g><g>
	<g>
		<path d="M315.432,305.451c-4.142,0-7.5,3.358-7.5,7.5v8.979c0,4.142,3.358,7.5,7.5,7.5c4.142,0,7.5-3.358,7.5-7.5v-8.979    C322.932,308.809,319.574,305.451,315.432,305.451z" data-original="#000000" class="active-path" data-old_color="#000000" fill="#B88D61"/>
	</g>
</g><g>
	<g>
		<path d="M385.019,316.261c-3.12-2.726-7.856-2.408-10.583,0.711c-2.273,2.601-5.698,4.092-9.397,4.092    c-3.699,0-7.124-1.491-9.397-4.091c-2.727-3.119-7.465-3.436-10.583-0.71c-3.119,2.726-3.437,7.464-0.71,10.583    c5.122,5.859,12.663,9.219,20.69,9.219c8.028,0,15.569-3.36,20.691-9.22C388.456,323.726,388.138,318.987,385.019,316.261z" data-original="#000000" class="active-path" data-old_color="#000000" fill="#B88D61"/>
	</g>
</g><g>
	<g>
		<path d="M196.568,305.451c-4.142,0-7.5,3.358-7.5,7.5v8.979c0,4.142,3.358,7.5,7.5,7.5c4.142,0,7.5-3.358,7.5-7.5v-8.979    C204.068,308.809,200.71,305.451,196.568,305.451z" data-original="#000000" class="active-path" data-old_color="#000000" fill="#B88D61"/>
	</g>
</g><g>
	<g>
		<path d="M97.353,305.451c-4.142,0-7.5,3.358-7.5,7.5v8.979c0,4.142,3.358,7.5,7.5,7.5c4.142,0,7.5-3.358,7.5-7.5v-8.979    C104.853,308.809,101.495,305.451,97.353,305.451z" data-original="#000000" class="active-path" data-old_color="#000000" fill="#B88D61"/>
	</g>
</g><g>
	<g>
		<path d="M166.94,316.261c-3.12-2.726-7.856-2.408-10.583,0.711c-2.273,2.601-5.698,4.092-9.396,4.092s-7.124-1.491-9.397-4.091    c-2.726-3.119-7.465-3.436-10.583-0.71c-3.119,2.726-3.437,7.464-0.71,10.583c5.122,5.859,12.663,9.219,20.69,9.219    c8.027,0,15.569-3.36,20.69-9.22C170.377,323.726,170.059,318.987,166.94,316.261z" data-original="#000000" class="active-path" data-old_color="#000000" fill="#B88D61"/>
	</g>
</g><g>
	<g>
		<path d="M177.656,9.601H78.934c-35.104,0-63.664,28.56-63.664,63.664c0,35.105,28.56,63.665,63.664,63.665h25.325l50.706,33.997    c2.017,1.352,4.337,2.067,6.709,2.067c4.091,0,7.882-2.07,10.141-5.538c2.214-3.398,2.547-7.666,0.89-11.415l-8.445-19.111h13.396    c35.104-0.001,63.664-28.56,63.664-63.665C241.32,38.161,212.76,9.601,177.656,9.601z M177.656,121.93h-24.911v-0.001    c-2.536,0-4.9,1.282-6.284,3.407c-1.384,2.125-1.601,4.805-0.576,7.125l8.992,20.347l-44.16-29.608    c-1.235-0.828-2.689-1.271-4.177-1.271H78.934c-26.833,0-48.664-21.831-48.664-48.665S52.1,24.601,78.934,24.601h98.722    c26.833,0,48.664,21.831,48.664,48.664S204.489,121.93,177.656,121.93z" data-original="#000000" class="active-path" data-old_color="#000000" fill="#B88D61"/>
	</g>
</g><g>
	<g>
		<path d="M433.066,9.6h-98.722c-35.104,0-63.664,28.56-63.664,63.664c0,35.105,28.56,63.665,63.664,63.665h13.396l-8.446,19.112    c-1.656,3.749-1.323,8.016,0.891,11.414c2.259,3.468,6.05,5.538,10.141,5.538c2.372,0,4.692-0.715,6.709-2.067l50.706-33.997    h25.325c35.104,0,63.664-28.56,63.664-63.665C496.73,38.16,468.17,9.6,433.066,9.6z M433.066,121.929h-27.607    c-1.487,0-2.941,0.442-4.177,1.271l-44.16,29.608c0,0,8.976-20.312,8.992-20.347c2.157-4.881-1.539-10.532-6.86-10.532h-24.91    c-26.833,0-48.664-21.831-48.664-48.665c0-26.834,21.831-48.664,48.664-48.664h98.722c26.833,0,48.664,21.831,48.664,48.664    S459.899,121.929,433.066,121.929z" data-original="#000000" class="active-path" data-old_color="#000000" fill="#B88D61"/>
	</g>
</g><g>
	<g>
		<path d="M502.84,293.634c-5.457-29.772-21.286-57.221-44.762-77.509c-3.135-2.708-7.87-2.362-10.579,0.771    c-2.708,3.134-2.363,7.87,0.771,10.579c17.298,14.948,29.929,34.235,36.512,55.423c-3.119-0.742-6.362-1.046-9.564-0.927    c-0.117,0.004-0.234-0.001-0.351,0.004c-5.056-8.994-11.841-16.54-19.734-22.424c-18.965-14.136-44.138-18.381-66.57-10.696    c-5.518,1.89-10.792,4.451-15.864,7.319c-4.67,2.642-10.65,2.642-15.32,0c-6.065-3.43-12.4-6.388-19.102-8.337    c-12.047-3.505-24.885-3.741-37.055-0.699c-5.488,1.355-10.823,3.354-15.849,5.943c-0.546-9.091-1.685-17.813-3.158-25.946    c22.909-19.64,52.153-30.409,82.823-30.409c20.727,0,41.27,5.026,59.407,14.534c3.67,1.923,8.202,0.508,10.125-3.16    c1.923-3.669,0.508-8.202-3.16-10.125c-20.278-10.63-43.229-16.249-66.372-16.249c-31.56,0-61.781,10.223-86.38,29.004    c-5.614-22.235-12.615-37.288-13.202-38.53c-1.685-3.564-5.856-5.208-9.529-3.773c-0.34,0.133-34.862,13.299-108.968,13.299    c-29.052,0-52.745,3.713-72.431,11.353c-3.861,1.499-5.777,5.844-4.279,9.706c1.499,3.861,5.844,5.777,9.706,4.279    c17.675-6.859,40.219-10.337,67.004-10.337c58.952,0,93.651-7.981,107.5-12.047c5.073,12.748,15.912,44.004,16.221,78.884    c0.047,5.277-0.154,10.749-0.641,16.069c-0.126,1.371-0.269,2.732-0.431,4.082c-1.292-0.427-2.615-0.771-3.955-1.046    c-0.031-0.007-3.425-0.666-5.086-0.666c-0.114-0.007-0.227-0.017-0.341-0.023c-0.34-0.017-3.357,0.143-3.439-0.005    c-5.113-9.097-11.991-16.719-20-22.631c-12.084-9.009-27.059-14.353-43.238-14.353c-7.874,0-15.606,1.308-23.075,3.867    c-5.762,1.959-11.084,4.938-16.506,7.657c-4.316,2.164-9.597,2.181-13.924,0.049c-5.514-2.717-10.754-5.702-16.605-7.707    c-7.467-2.558-15.198-3.865-23.071-3.865c-16.18,0-31.156,5.345-43.24,14.355c-8.007,5.911-14.884,13.533-19.996,22.628    c-1.651-0.078-3.309-0.045-4.954,0.117c-0.015,0.001-0.03,0.002-0.045,0.003c-2.791,0.26-5.486,0.849-8.053,1.721    c4.029-28.616,14.074-48.735,31.097-62.643c3.208-2.621,3.684-7.346,1.063-10.553c-2.62-3.208-7.345-3.684-10.553-1.063    c-22.811,18.637-34.883,45.918-37.902,85.699C2.92,301.328,0,309.022,0,317.389c0,18.983,14.997,34.526,33.765,35.411    c6.449,19.107,17.965,36.03,33.019,49.282c-14.713,18.247-22.738,40.866-22.738,64.515V494.9c0,4.142,3.358,7.5,7.5,7.5h190.829    c4.142,0,7.5-3.358,7.5-7.5v-28.303c0-23.648-8.025-46.268-22.738-64.515c12.231-10.767,22.125-23.957,28.866-38.772    c6.664,14.651,16.492,27.917,28.84,38.796c-14.701,18.243-22.719,40.852-22.719,64.491V494.9c0,4.142,3.358,7.5,7.5,7.5h190.83    c4.142,0,7.5-3.358,7.5-7.5v-28.303c0-23.648-8.025-46.267-22.739-64.514c15.055-13.252,26.57-30.175,33.02-49.282    C497.003,351.915,512,336.372,512,317.389C512,308.259,508.529,299.925,502.84,293.634z M29.633,336.608    c0.024,0.136,0.04,0.274,0.064,0.411C21.212,334.526,15,326.67,15,317.389c0-9.266,6.588-17.699,15.656-19.871    c-1.407,4.969-2.259,10.093-2.565,15.331C27.627,320.786,28.259,328.785,29.633,336.608z M119.33,487.399H99.603v-36.168    c0-4.142-3.358-7.5-7.5-7.5c-4.142,0-7.5,3.358-7.5,7.5v36.168H59.046v-20.803c0-20.28,6.905-39.676,19.566-55.293    c12.158,8.259,25.579,14.128,39.786,17.483v6.182c0,6.377,2.102,12.272,5.647,17.031L119.33,487.399z M134.462,487.4l3.376-25.349    c0.139,0.047,0.284,0.078,0.424,0.123c2.808,0.892,5.752,1.359,8.698,1.359c2.955,0,5.879-0.465,8.694-1.357    c0.142-0.046,0.288-0.078,0.428-0.125l3.376,25.349H134.462z M160.523,434.968c0,7.293-6.161,13.542-13.524,13.562    c-0.013,0-0.026,0.002-0.04,0.002c-7.322,0-13.562-6.239-13.562-13.563v-3.602c4.5,0.484,9.037,0.729,13.563,0.729    c4.522,0,9.066-0.245,13.563-0.73V434.968z M234.875,466.596v20.803h-25.557v-36.168c0-4.142-3.358-7.5-7.5-7.5    c-4.142,0-7.5,3.358-7.5,7.5v36.168h-19.727l-4.715-35.4c3.546-4.759,5.647-10.654,5.647-17.031v-6.182    c14.206-3.356,27.628-9.225,39.786-17.483C227.97,426.921,234.875,446.317,234.875,466.596z M247.646,342.428    c-10.027,37.027-41.749,65.755-81.323,72.928c-12.761,2.313-25.964,2.313-38.725,0c-39.574-7.173-71.296-35.901-81.322-72.928    c-2.502-9.242-3.772-18.902-3.229-28.478c0.982-17.341,9.782-32.651,22.92-42.492c15.483-11.484,36.321-14.887,55.173-7.476    c3.709,1.458,7.309,3.29,10.777,5.25c9.25,5.23,20.842,5.229,30.09,0c3.463-1.959,7.062-3.79,10.765-5.246    c18.86-7.418,39.706-4.013,55.192,7.478C250.502,288.188,254.604,316.758,247.646,342.428z M264.732,303.815    c-0.003-0.015-0.006-0.031-0.009-0.046c-0.266-1.419-0.569-2.828-0.92-4.224c0.187-0.575,0.384-1.149,0.59-1.718    c0.019,0.006,0.039,0.011,0.058,0.017c8.485,2.578,14.471,10.692,14.471,19.546c0,9.281-6.212,17.137-14.697,19.629    c0.007-0.045,0.012-0.09,0.02-0.135C266.175,326.077,266.796,314.65,264.732,303.815z M337.408,487.399h-19.727v-36.168    c0-4.142-3.358-7.5-7.5-7.5c-4.142,0-7.5,3.358-7.5,7.5v36.168h-25.557v-20.803c0-20.285,6.909-39.686,19.576-55.306    c1.936,1.316,3.981,2.459,5.926,3.756c10.544,6.303,21.917,10.914,33.849,13.736v6.186c0,6.377,2.102,12.272,5.648,17.031    L337.408,487.399z M352.541,487.399l3.376-25.349c2.923,0.982,6.04,1.481,9.122,1.481c3.08,0,6.201-0.5,9.122-1.481l3.376,25.349    H352.541z M378.603,434.968c0,3.702-1.494,7.06-3.907,9.509c-2.514,2.552-6.072,4.054-9.656,4.054    c-5.959,0-11.349-4.161-13.026-9.854c-0.679-2.305-0.538-4.869-0.538-7.313c2.007,0.217,4.029,0.37,6.058,0.49    c4.943,0.294,9.894,0.309,14.837,0.016c2.079-0.123,4.161-0.282,6.232-0.505V434.968z M452.955,466.596v20.803h-0.001h-25.558    v-36.168c0-4.142-3.358-7.5-7.5-7.5c-4.142,0-7.5,3.358-7.5,7.5v36.168H392.67l-4.715-35.4c3.546-4.759,5.648-10.654,5.648-17.031    v-6.182c14.206-3.355,27.627-9.225,39.785-17.483C446.05,426.921,452.955,446.317,452.955,466.596z M465.73,342.407    c-10.049,37.144-41.929,65.942-81.67,73.012c-24.96,4.441-51.857-0.145-73.829-13.297c-19.349-11.582-34.753-29.303-42.853-50.414    c15.25-3.962,26.543-17.846,26.543-34.318c0-9.774-3.975-18.637-10.394-25.056c1.201-7.253,1.885-14.587,2.114-21.934    c0.12-0.083,0.241-0.165,0.361-0.247c5.054-3.455,10.618-6.077,16.483-7.821c0.048-0.014,0.097-0.029,0.145-0.043    c16.392-4.802,32.775-1.307,47.364,6.943c4.583,2.592,9.786,3.962,15.045,3.962c5.259,0,10.462-1.371,15.044-3.962    c20.874-11.805,46.019-12.555,65.947,2.223c13.142,9.843,21.944,25.159,22.924,42.509    C469.491,323.47,468.211,333.235,465.73,342.407z M482.302,337.019c1.422-7.95,2.078-16.075,1.608-24.146    c-0.305-5.244-1.157-10.373-2.565-15.346c0.44,0.106,0.878,0.217,1.309,0.353c8.149,2.556,14.007,10.194,14.33,18.727    c0.01,0.261,0.015,0.522,0.015,0.783C497,326.67,490.788,334.526,482.302,337.019z" data-original="#000000" class="active-path" data-old_color="#000000" fill="#B88D61"/>
	</g>
</g></g> </svg>
