<?xml version="1.0" encoding="UTF-8"?>
<!DOCTYPE svg PUBLIC "-//W3C//DTD SVG 1.1//EN" "http://www.w3.org/Graphics/SVG/1.1/DTD/svg11.dtd">
<!-- Creator: CorelDRAW 2021 (64-Bit) -->
<svg xmlns="http://www.w3.org/2000/svg" xml:space="preserve" width="210mm" height="297mm" version="1.1" style="shape-rendering:geometricPrecision; text-rendering:geometricPrecision; image-rendering:optimizeQuality; fill-rule:evenodd; clip-rule:evenodd"
viewBox="0 0 21000 29700"
 xmlns:xlink="http://www.w3.org/1999/xlink"
 xmlns:xodm="http://www.corel.com/coreldraw/odm/2003">
 <defs>
  <style type="text/css">
   <![CDATA[
    .fil0 {fill:#B88D61;fill-rule:nonzero}
   ]]>
  </style>
 </defs>
 <g id="Слой_x0020_1">
  <metadata id="CorelCorpID_0Corel-Layer"/>
  <path class="fil0" d="M6058.14 6294.4c-1390.43,0 -2776.63,533.2 -3826.63,1599.61 -1050,1050 -1575.26,2394.92 -1575.26,3871.49 0,1443.75 524.74,2822.26 1541.93,3839.44l1338.78 1331.09c-206.39,533.2 -96.91,1161.76 332.61,1591.28 290.06,290.06 671.02,435.15 1052.3,435.15 56.77,0 112.76,-9.79 169.19,-16.02 -49.54,435.42 85.76,888.12 419.13,1221.49 290.07,290.06 671.03,435.15 1052.31,435.15 56.77,0 112.75,-9.79 169.19,-16.02 -49.55,435.42 85.75,888.12 419.13,1221.5 290.06,290.06 671.02,435.15 1052.3,435.15 56.77,0 112.76,-9.79 169.19,-16.02 -49.54,435.42 85.76,888.12 419.13,1221.49 290.07,290.06 671.03,435.15 1052.31,435.15 381.28,0 762.24,-145.09 1052.31,-435.15l1674.59 -1674.59c71.2,-71.2 134.59,-148.99 189.05,-231.35 220.5,124.68 467.19,197.39 727.39,197.39 397.69,0 771.43,-154.59 1052.31,-435.8 281.2,-280.87 436.43,-654.62 436.43,-1052.3 0,-57.42 -10.43,-113.08 -16.66,-169.19 56.11,6.23 111.45,16.66 168.55,16.66 397.68,0 771.43,-154.59 1052.3,-435.79 281.21,-280.88 436.44,-654.62 436.44,-1052.31 0,-57.42 -10.43,-113.08 -16.67,-169.19 56.11,6.24 111.46,16.67 168.55,16.67 397.69,0 771.43,-154.59 1052.31,-435.8 265.45,-265.12 431.09,-657.34 453.73,-1075.37 14.44,-265.46 -35.92,-513 -130.09,-719.06l624.2 -624.21c1017.19,-1050 1575.26,-2395.69 1575.26,-3839.44 0,-1476.57 -558.07,-2821.49 -1575.26,-3871.49 -2132.81,-2132.82 -5577.61,-2132.82 -7677.61,0l-152.53 151.88c-4.26,3.94 -9.19,5.35 -13.45,9.62 -3.94,3.93 -171.72,170.37 -433.23,420.41l-582.55 -581.91c-1066.41,-1066.41 -2460.55,-1599.61 -3850.98,-1599.61zm8871.55 656.25c1222.26,0 2444.79,467.06 3379.94,1402.22 885.94,918.75 1377.87,2132.94 1377.87,3412.63 0,1279.68 -492.44,2461.32 -1411.19,3347.26l-570.38 572.93 -2707.67 -2707.67c0,0 -0.64,-0.64 -0.64,-0.64l-660.74 -660.74c-1071.32,-1071.32 -2720.04,-1265.1 -4010.56,-471.03l-958.74 589.6c-681.84,419.34 -1559.97,365.15 -2184.72,-134.59 -19.69,-16.08 -23.09,-36.2 -22.43,-49.99 0.66,-13.78 5.59,-33.95 26.92,-48.06 9.84,-6.89 19.65,-14.24 28.84,-21.79l2168.06 -1819.43c659.86,-553.87 1316.88,-1174.58 1690.61,-1535.52l16.02 -13.46 53.83 -53.83c150.29,-146.02 240.58,-236.73 243.53,-239.69 3.94,-3.93 5.68,-9.19 9.62,-13.45l151.88 -152.53c935.16,-935.16 2157.68,-1402.22 3379.95,-1402.22zm-8892.06 24.35c1214.06,0 2460.55,459.63 3379.3,1411.19l567.81 567.17c-309.42,286.13 -665.83,605.97 -1022.83,905.55l-2155.88 1809.82c-182.44,128.95 -291.69,329.27 -301.21,553.71 -10.17,231 87.73,446.5 268.53,590.88 840.32,672.65 2021.27,746.07 2938.38,181.36l958.1 -589.6c1030.31,-633.93 2347.64,-479.87 3203.06,375.55l4.49 4.49 656.25 656.25 2953.13 2953.12c75.79,75.8 145.8,265.17 132.01,517.83 -14.1,258.56 -109.53,494.7 -262.11,647.27 -314.34,314.35 -862.29,314.35 -1176.64,0l-2494.9 -2495.54c-128.3,-128.3 -335.69,-128.3 -463.99,0 -128.3,128.3 -128.3,335.69 0,463.99l2494.9 2495.54c157.18,157.18 244.18,366.18 244.18,588.32 0,222.14 -87,431.15 -244.18,588.32 -314.34,314.34 -862.29,314.34 -1176.63,0l-2494.91 -2495.54c-128.29,-128.3 -335.69,-128.3 -463.98,0 -128.3,128.29 -128.3,335.69 0,463.98l2494.9 2495.55c157.17,157.17 244.17,366.18 244.17,588.32 0,222.14 -87,431.14 -244.17,588.31 -286.78,286.79 -766.65,308.36 -1087.56,71.78 8.21,-63 19.23,-125.37 19.23,-190.34 0,-397.68 -155.23,-771.43 -436.43,-1052.3 -280.88,-281.21 -654.62,-436.44 -1052.31,-436.44 -57.42,0 -112.44,10.43 -168.55,16.67 6.24,-56.11 16.67,-111.46 16.67,-168.55 0,-397.69 -155.23,-771.43 -436.44,-1052.31 -280.87,-281.2 -654.62,-436.43 -1052.3,-436.43 -57.43,0 -112.44,10.43 -168.55,16.66 6.23,-56.11 16.66,-111.45 16.66,-168.55 0,-397.68 -155.23,-771.43 -436.43,-1052.3 -280.88,-281.21 -654.62,-436.44 -1052.31,-436.44 -57.42,0 -112.44,10.43 -168.55,16.67 6.24,-56.11 16.67,-111.46 16.67,-168.55 0,-397.69 -155.23,-771.43 -436.44,-1052.31 -280.87,-281.2 -654.62,-436.43 -1052.3,-436.43 -397.36,0 -771.44,155.23 -1052.31,436.43l-1622.68 1622.68 -1263.8 -1258.02c-885.93,-885.94 -1410.55,-2100.26 -1410.55,-3379.95 0,-1279.69 524.49,-2460.68 1443.24,-3346.62 918.75,-951.56 2133.2,-1411.19 3347.26,-1411.19zm-3162.05 4575.16l-655.61 32.69c-181.12,8.86 -320.96,162.38 -312.1,343.51 8.53,175.54 153.58,312.1 327.48,312.1 5.58,0 11.09,-0.64 16.66,-0.64l655.61 -32.05c181.13,-8.86 320.33,-162.38 311.47,-343.5 -8.86,-181.13 -166.65,-320.96 -343.51,-312.11zm396.06 1414.4c-42.3,5.24 -84.48,19.02 -123.69,41.66l-568.45 328.12c-157.17,90.57 -211.05,291.13 -120.49,447.97 60.71,105.33 171.02,164.06 284.55,164.06 55.45,0 112.22,-14.04 164.06,-43.57l568.45 -328.13c157.18,-90.56 211.05,-291.76 120.49,-448.61 -67.92,-117.88 -198.03,-177.2 -324.92,-161.5zm1056.79 1167.67c-84,0.08 -168.01,32.46 -231.99,96.77l-463.35 464.63c-127.97,128.62 -127.66,336.02 0.64,463.99 63.98,63.65 147.68,96.13 231.35,96.13 84,0 168.32,-31.82 232.64,-96.13l463.35 -465.27c127.96,-128.63 127.65,-336.02 -0.65,-463.99 -64.31,-63.99 -147.99,-96.22 -231.99,-96.13zm2268.04 835.69c222.14,0 431.14,87 588.31,244.17 157.18,157.17 244.18,366.18 244.18,588.32 0,222.14 -87,431.14 -244.18,588.32l-1674.59 1674.59c-324.18,324.19 -852.45,324.19 -1176.63,0 -324.52,-324.52 -324.52,-852.12 0,-1176.64l1674.59 -1674.59c157.17,-157.17 366.18,-244.17 588.32,-244.17zm1640.62 1640.62c222.14,0 431.15,87 588.32,244.18 157.17,157.17 244.17,366.17 244.17,588.31 0,222.14 -87,431.15 -244.17,588.32l-1674.59 1674.59c-324.19,324.19 -852.45,324.19 -1176.64,0 -324.51,-324.51 -324.51,-852.12 0,-1176.63l1674.59 -1674.59c157.18,-157.18 366.18,-244.18 588.32,-244.18zm1640.63 1640.63c222.14,0 431.14,87 588.31,244.17 157.18,157.17 244.18,366.18 244.18,588.32 0,222.14 -87,431.14 -244.18,588.32l-1674.59 1674.59c-324.18,324.19 -852.45,324.19 -1176.63,0 -324.52,-324.52 -324.52,-852.12 0,-1176.64l1674.59 -1674.59c157.17,-157.17 366.18,-244.17 588.32,-244.17zm1640.62 1640.62c222.14,0 431.15,87 588.32,244.18 157.17,157.17 244.17,366.17 244.17,588.31 0,222.14 -87,431.15 -244.17,588.32l-1674.59 1674.59c-324.19,324.19 -852.45,324.19 -1176.64,0 -324.51,-324.51 -324.51,-852.12 0,-1176.63l1674.59 -1674.59c157.18,-157.18 366.18,-244.18 588.32,-244.18z"/>
 </g>
</svg>
