<?xml version="1.0"?>
<svg xmlns="http://www.w3.org/2000/svg" xmlns:xlink="http://www.w3.org/1999/xlink" version="1.1" id="Layer_1" x="0px" y="0px" viewBox="0 0 512 512" style="enable-background:new 0 0 512 512;" xml:space="preserve" width="70px" height="70px"><g><g>
	<path d="M256,180.998c-5.52,0-10,4.48-10,10s4.48,10,10,10s10-4.48,10-10S261.52,180.998,256,180.998z" data-original="#000000" class="active-path" data-old_color="#000000" fill="#B88D61"/>
	<path d="M471.641,201.94c-3.058-34.065-26.078-62.97-59.228-73.299c-16.285-5.071-33.247-7.643-50.413-7.643H150   c-17.159,0-34.117,2.571-50.403,7.643c-33.149,10.326-56.171,39.23-59.236,73.299C17.388,206.445,0,226.725,0,250.998   c0,24.285,17.406,44.572,40.395,49.065c0.095,1.093,0.205,2.181,0.334,3.259c5.879,49.792,54.441,87.207,102.172,87.676   c0.323,0.004,0.642,0.005,0.964,0.005c25.153-0.001,46.005-9.799,60.338-28.37c9.792-12.671,32.723-42.346,51.771-42.354   c0.003,0,0.005,0,0.008,0c13.842,0,34.332,15.832,54.812,42.35c14.463,18.736,35.322,28.536,60.274,28.37   c46.84-0.321,94.309-37.744,100.2-87.658c0.13-1.085,0.24-2.179,0.336-3.277c22.99-4.492,40.396-24.78,40.396-49.065   C512,226.726,494.613,206.447,471.641,201.94z M20,250.998c0-16.542,13.458-30,30-30c4.502,0,8.87,1.002,12.844,2.885   c-12.452,16.13-20.122,35.298-22.239,55.6C28.652,275.53,20,264.259,20,250.998z M451.409,300.977   c-4.91,41.589-45.576,69.782-80.48,70.021c-12.84,0.086-31.038-3.407-44.305-20.593c-14.459-18.723-42.86-50.127-70.642-50.127   c-0.005,0-0.012,0-0.017,0c-28.863,0.013-55.019,33.858-67.592,50.13c-13.082,16.949-31.309,20.594-44.559,20.594   c-0.24,0-0.48-0.001-0.717-0.004c-35.894-0.353-77.612-28.573-82.51-70.041c-6.287-52.403,35.236-99.959,89.411-99.959h66   c5.522,0,10-4.478,10-10s-4.478-10-10-10h-66c-27.346,0-52.986,9.82-73.13,27.823c-5.035-3.215-10.591-5.478-16.427-6.717   c2.927-25.32,20.31-46.646,45.1-54.368c14.359-4.472,29.316-6.738,44.457-6.738h212c15.147,0,30.108,2.267,44.466,6.737   c24.791,7.726,42.172,29.052,45.093,54.368c-5.837,1.239-11.394,3.503-16.429,6.718c-20.144-18.004-45.784-27.823-73.13-27.823h-66   c-5.522,0-10,4.478-10,10s4.478,10,10,10h66C417.127,200.998,457.577,249.521,451.409,300.977z M471.399,279.481   c-2.11-20.281-9.782-39.452-22.245-55.597c3.974-1.884,8.343-2.886,12.846-2.886c16.542,0,30,13.458,30,30   C492,264.257,483.35,275.527,471.399,279.481z" data-original="#000000" class="active-path" data-old_color="#000000" fill="#B88D61"/>
	<path d="M205.225,252.381c-4.76-2.804-10.889-1.216-13.691,3.543c-4.411,7.491-19.063,15.074-38.533,15.074   c-13.112,0-32.2-4.324-38.534-15.076c-2.805-4.758-8.933-6.343-13.692-3.54c-4.758,2.804-6.343,8.934-3.54,13.692   c4.032,6.844,10.848,12.697,19.534,17.01l-7.911,7.915c-3.904,3.906-3.902,10.238,0.004,14.143   c3.907,3.904,10.236,3.902,14.143-0.004l15.308-15.316c1.548,0.252,3.111,0.467,4.689,0.638v10.538c0,5.522,4.478,10,10,10   s10-4.478,10-10v-10.54c1.583-0.171,3.145-0.382,4.686-0.632l15.313,15.313c3.907,3.905,10.236,3.904,14.143,0   c3.905-3.905,3.905-10.237,0-14.143l-7.896-7.896c8.6-4.264,15.43-10.08,19.521-17.029   C211.569,261.313,209.983,255.184,205.225,252.381z" data-original="#000000" class="active-path" data-old_color="#000000" fill="#B88D61"/>
	<path d="M411.225,252.381c-4.761-2.804-10.889-1.216-13.691,3.543c-4.411,7.491-19.063,15.074-38.533,15.074   c-13.112,0-32.2-4.324-38.534-15.076c-2.804-4.758-8.933-6.343-13.692-3.54c-4.758,2.804-6.343,8.934-3.54,13.692   c4.032,6.844,10.848,12.697,19.534,17.01l-7.911,7.915c-3.904,3.906-3.902,10.238,0.004,14.143   c3.907,3.904,10.236,3.902,14.143-0.004l15.308-15.316c1.548,0.252,3.111,0.467,4.689,0.638v10.538c0,5.522,4.478,10,10,10   s10-4.478,10-10v-10.54c1.583-0.171,3.145-0.382,4.686-0.632l15.313,15.313c3.907,3.905,10.236,3.904,14.143,0   c3.905-3.905,3.905-10.237,0-14.143l-7.896-7.896c8.6-4.264,15.43-10.08,19.521-17.029   C417.569,261.313,415.983,255.184,411.225,252.381z" data-original="#000000" class="active-path" data-old_color="#000000" fill="#B88D61"/>
</g></g> </svg>
