<?xml version="1.0" encoding="UTF-8"?>
<!DOCTYPE svg PUBLIC "-//W3C//DTD SVG 1.1//EN" "http://www.w3.org/Graphics/SVG/1.1/DTD/svg11.dtd">
<!-- Creator: CorelDRAW 2021 (64-Bit) -->
<svg xmlns="http://www.w3.org/2000/svg" xml:space="preserve" width="210mm" height="297mm" version="1.1" style="shape-rendering:geometricPrecision; text-rendering:geometricPrecision; image-rendering:optimizeQuality; fill-rule:evenodd; clip-rule:evenodd"
viewBox="0 0 21000 29700"
 xmlns:xlink="http://www.w3.org/1999/xlink"
 xmlns:xodm="http://www.corel.com/coreldraw/odm/2003">
 <defs>
  <style type="text/css">
   <![CDATA[
    .fil0 {fill:#B88D61;fill-rule:nonzero}
   ]]>
  </style>
 </defs>
 <g id="Слой_x0020_1">
  <metadata id="CorelCorpID_0Corel-Layer"/>
  <g id="_1013960960">
   <g>
    <g>
     <path class="fil0" d="M16785.77 16128.39c-288.81,0 -573.36,-110.43 -794.22,-331.28 -3032.46,-3028.21 -7959.15,-3028.21 -10991.61,0 -437.46,437.46 -1150.98,437.46 -1588.43,0 -437.45,-437.46 -437.46,-1150.98 0,-1588.43 3907.37,-3907.37 10261.1,-3907.37 14168.47,0 437.46,437.46 437.46,1150.98 0,1588.43 -220.84,220.85 -509.65,331.28 -794.21,331.28z"/>
    </g>
    <g>
     <path class="fil0" d="M13744.82 19165.1c-288.81,0 -573.36,-110.43 -794.22,-331.28 -654.06,-654.06 -1528.97,-1015.07 -2454.85,-1015.07 -925.88,0 -1800.79,361.01 -2454.85,1015.07 -437.46,437.46 -1150.98,437.46 -1588.43,0 -437.46,-437.46 -437.46,-1150.98 0,-1588.43 1078.77,-1078.77 2514.31,-1673.37 4043.28,-1673.37 1528.97,0 2964.51,594.6 4043.28,1677.62 437.46,437.46 437.46,1150.98 0,1588.43 -216.6,216.6 -505.41,327.03 -794.21,327.03z"/>
    </g>
    <g>
     <circle class="fil0" cx="10495.75" cy="21292.92" r="1499.24"/>
    </g>
    <g>
     <path class="fil0" d="M19873.44 13040.72c-288.81,0 -573.36,-110.43 -794.22,-331.28 -4735.56,-4731.32 -12431.39,-4731.32 -17162.71,0 -437.46,437.46 -1150.98,437.46 -1588.43,0 -437.45,-437.46 -437.46,-1150.98 0,-1588.43 2718.17,-2718.17 6328.24,-4213.17 10171.91,-4213.17 3843.67,0 7453.74,1494.99 10171.91,4213.17 437.46,437.46 437.46,1150.98 0,1588.43 -225.09,220.85 -513.9,331.28 -798.46,331.28z"/>
    </g>
   </g>
  </g>
  <g id="_1013955248">
  </g>
  <g id="_1013957408">
  </g>
  <g id="_1013957072">
  </g>
  <g id="_1013957648">
  </g>
  <g id="_1013955008">
  </g>
  <g id="_1013957360">
  </g>
  <g id="_1013956352">
  </g>
  <g id="_1013956640">
  </g>
  <g id="_1013957024">
  </g>
  <g id="_1013953520">
  </g>
  <g id="_1013954672">
  </g>
  <g id="_1013954576">
  </g>
  <g id="_1013952224">
  </g>
  <g id="_1013953040">
  </g>
  <g id="_1013952176">
  </g>
 </g>
</svg>
