<svg id="Capa_1" data-name="Capa 1" xmlns="http://www.w3.org/2000/svg" viewBox="0 0 612 546.2">
  <defs>
    <style>
      .cls-1 {
        fill: #b88d61;
      }

      .cls-2 {
        fill: #eae7de;
      }
    </style>
  </defs>
  <title>ticket</title>
  <path class="cls-1" d="M608,246.85l-29.4-42c-.18.13-.35.27-.53.39A73.57,73.57,0,1,1,493.61,84.76c.18-.13.37-.24.55-.36l-29.4-42a22.36,22.36,0,0,0-31.13-5.49L317.36,118.39l25.44,36.34L315.21,174l-25.44-36.33L9.54,334a22.34,22.34,0,0,0-5.49,31.13L147.24,569.57a22.35,22.35,0,0,0,31.13,5.48L458.6,378.75l-25.13-35.88,27.59-19.32,25.13,35.89L602.47,278A22.37,22.37,0,0,0,608,246.85ZM334.83,200.73l27.59-19.32,33,47.13-27.6,19.33Zm80.84,116.73L385.21,274l27.59-19.32,30.46,43.48Z" transform="translate(0 -32.9)"/>
  <g id="Sun">
    <path class="cls-2" d="M62.43,245.52a11.06,11.06,0,0,0-11.68-10.39l-22.08,1.29A11.05,11.05,0,0,0,30,258.49L52,257.2A11.05,11.05,0,0,0,62.43,245.52Zm14.7,61.91a11,11,0,0,0-7.62,3.68L55.65,326.69a11.06,11.06,0,1,0,16.52,14.7L86,325.81a11,11,0,0,0-8.9-18.38Zm65-151.49a11,11,0,0,0,10.39-11.68l-1.29-22.08a11.06,11.06,0,0,0-22.08,1.3l1.3,22.07A11,11,0,0,0,142.11,155.94ZM217,173.72A11,11,0,0,0,224.6,170l13.86-15.58a11.05,11.05,0,1,0-16.52-14.69l-13.86,15.58A11.05,11.05,0,0,0,217,173.72ZM61.81,179.55A11.06,11.06,0,0,0,76.52,163L60.94,149.16a11.06,11.06,0,0,0-14.7,16.53Zm202.34,43.1-22.07,1.29A11.06,11.06,0,1,0,243.37,246l22.07-1.29a11.06,11.06,0,1,0-1.29-22.08ZM232.3,301.59a11.06,11.06,0,1,0-14.7,16.52L233.18,332a11.06,11.06,0,1,0,14.7-16.52ZM152,325.2a11.06,11.06,0,0,0-10.4,11.68L142.9,359A11.06,11.06,0,0,0,165,357.67l-1.29-22.08A11.05,11.05,0,0,0,152,325.2Zm-9.47-161.9a77.4,77.4,0,1,0,81.79,72.75A77.49,77.49,0,0,0,142.54,163.3Zm7.74,132.46a55.28,55.28,0,1,1,52-58.42A55.33,55.33,0,0,1,150.28,295.76Z" transform="translate(0 -32.9)"/>
  </g>
</svg>
