<svg id="Capa_1" data-name="Capa 1" xmlns="http://www.w3.org/2000/svg" viewBox="0 0 612 546.2">
  <defs>
    <style>
      .cls-1 {
        fill: #b88d61;
      }

      .cls-2 {
        fill: #eae7de;
      }
    </style>
  </defs>
  <title>ticket7</title>
  <path class="cls-1" d="M608,246.85l-29.4-42c-.18.13-.35.27-.53.39A73.57,73.57,0,1,1,493.61,84.76c.18-.13.37-.24.55-.36l-29.4-42a22.36,22.36,0,0,0-31.13-5.49L317.36,118.39l25.44,36.34L315.21,174l-25.44-36.33L9.54,334a22.34,22.34,0,0,0-5.49,31.13L147.24,569.57a22.35,22.35,0,0,0,31.13,5.48L458.6,378.75l-25.13-35.88,27.59-19.32,25.13,35.89L602.47,278A22.37,22.37,0,0,0,608,246.85ZM334.83,200.73l27.59-19.32,33,47.13-27.6,19.33Zm80.84,116.73L385.21,274l27.59-19.32,30.46,43.48Z" transform="translate(0 -32.9)"/>
  <path class="cls-2" d="M101.48,112.07H213.07q16.1,0,23.29,5t7.21,16.59q0,7-8.46,18.6t-19.27,25.55a274.27,274.27,0,0,0-22.29,34.76q-11.48,20.79-21,50.77a222.38,222.38,0,0,0-5.69,21.95q-1.68,8.71-3.69,22.62t-3.52,21.28q-3.51,17.08-10,23.71t-17.17,6.62q-10.21,0-16.42-7.12t-6.2-21q0-10.72,4.52-29.16t14.75-44.15a430.28,430.28,0,0,1,62-106.64H101.48q-14.07,0-21-5.11t-7-16q0-11.57,7.37-14.92T101.48,112.07Z" transform="translate(0 -32.9)"/>
</svg>
