<svg id="Capa_1" data-name="Capa 1" xmlns="http://www.w3.org/2000/svg" viewBox="0 0 612 546.2">
  <defs>
    <style>
      .cls-1 {
        fill: #b88d61;
      }

      .cls-2 {
        fill: #eae7de;
      }
    </style>
  </defs>
  <title>ticketnight</title>
  <path class="cls-1" d="M608,246.85l-29.4-42c-.18.13-.35.27-.53.39A73.57,73.57,0,1,1,493.61,84.76c.18-.13.37-.24.55-.36l-29.4-42a22.36,22.36,0,0,0-31.13-5.49L317.36,118.39l25.44,36.34L315.21,174l-25.44-36.33L9.54,334a22.34,22.34,0,0,0-5.49,31.13L147.24,569.57a22.35,22.35,0,0,0,31.13,5.48L458.6,378.75l-25.13-35.88,27.59-19.32,25.13,35.89L602.47,278A22.37,22.37,0,0,0,608,246.85ZM334.83,200.73l27.59-19.32,33,47.13-27.6,19.33Zm80.84,116.73L385.21,274l27.59-19.32,30.46,43.48Z" transform="translate(0 -32.9)"/>
  <path class="cls-2" d="M168.41,359.53A132,132,0,0,1,117,353.31,134.68,134.68,0,0,1,39,286.4a133.49,133.49,0,0,1,70.54-184.34c7.44-2.9,15.27-1.38,20.45,4,5.74,5.94,7,15.31,3.36,23.87-.16.38-.36.79-.56,1.22-.09.18-.21.43-.28.6l-.08.3-.21.56c-7.38,19.3-7.21,41,.49,61.26A86.06,86.06,0,0,0,243.8,243.62c4.09-1.56,12.78-6,14.49-6.85,8.16-4.63,17.24-4.52,23.74.29,5.83,4.31,8.27,11.47,6.51,19.14a133,133,0,0,1-16,39.4A10.24,10.24,0,0,1,255.05,285a112.83,112.83,0,0,0,12.74-30.07c-2.43,1.27-11.55,5.89-16.7,7.85a106.54,106.54,0,0,1-137.48-61.62c-9.44-24.77-9.66-51.54-.65-75.43a23,23,0,0,1,1.38-3.39l0-.11A113.08,113.08,0,0,0,169,338.93a111.26,111.26,0,0,0,52-18.52,10.24,10.24,0,0,1,11.39,17,131.63,131.63,0,0,1-61.51,21.89C170.06,359.4,169.24,359.47,168.41,359.53Zm89.81-122.72-.07,0Zm-53.67-99.22-11.41.87a3.72,3.72,0,0,1-4-2.15l-4.39-10.38a4,4,0,0,0-7.57.58l-2.78,10.92a3.73,3.73,0,0,1-3.6,2.72l-11.39.87c-3.85.29-5,6-1.74,8l9.69,6.07a4,4,0,0,1,1.78,4.32l-2.53,11.22a4,4,0,0,0,6.46,4l8.65-7.47a4,4,0,0,1,4.68-.36l9.68,6.08a4,4,0,0,0,5.78-4.89l-4.2-10.71a3.94,3.94,0,0,1,1.11-4.53l8.68-7.48C210.43,142.77,208.4,137.3,204.55,137.59Zm69.87-33-11.41.87a3.72,3.72,0,0,1-4-2.15l-4.4-10.38a4,4,0,0,0-7.57.58L244.3,104.4a3.73,3.73,0,0,1-3.6,2.72l-11.39.87c-3.86.29-5,6-1.74,8l9.69,6.08a4,4,0,0,1,1.78,4.32l-2.53,11.22a4,4,0,0,0,6.46,4l8.65-7.47a4,4,0,0,1,2.28-.94,4,4,0,0,1,2.4.58l9.68,6.08a4,4,0,0,0,5.78-4.89l-4.2-10.71a3.94,3.94,0,0,1,1.11-4.53l8.68-7.48C280.3,109.74,278.27,104.27,274.42,104.56Zm-17.78,86.56-9,.69a3.07,3.07,0,0,1-3.18-1.82l-3.52-8.3a3.19,3.19,0,0,0-6,.46l-2.22,8.74a3.09,3.09,0,0,1-2.87,2.28l-9.12.69c-3.08.23-4,4.7-1.4,6.32L227,205a3.17,3.17,0,0,1,1.42,3.45l-2.82,9a3.19,3.19,0,0,0,5.17,3.17l7.71-6a3.2,3.2,0,0,1,3.74-.29l8.45,4.82a3.19,3.19,0,0,0,4.63-3.92l-4.06-8.51a3.17,3.17,0,0,1,.88-3.63l6.84-6C261.34,195.16,259.73,190.89,256.64,191.12Z" transform="translate(0 -32.9)"/>
</svg>
